<svg xmlns="http://www.w3.org/2000/svg" width="60" height="72" viewBox="0 0 60 72" fill="none"><path fill-rule="evenodd" clip-rule="evenodd" d="M47.0873 64.3988L48.2156 64.4084L48.2258 64.4085C49.391 64.4309 50.3108 65.3711 50.3108 66.5364V66.5457L50.2858 69.0901C50.2832 70.2442 49.312 71.1951 48.1579 71.1759L34.9229 71.0635C33.7514 71.0617 32.823 70.0974 32.823 68.9478V68.9387L32.848 66.3943C32.8507 65.2458 33.8147 64.2958 34.9636 64.2958L34.9716 64.296L35.8566 64.3035L35.8467 57.7418V57.7404C35.8467 55.6907 36.1902 53.7657 37.7192 52.3937C39.1725 51.0763 41.8229 49.0994 43.8661 46.6869C43.893 46.6551 43.9221 46.625 43.953 46.597C45.2385 45.435 47.1747 45.3963 48.4082 46.627C48.5081 46.7256 48.6005 46.827 48.6852 46.9311C48.722 46.7064 48.7407 46.4747 48.7408 46.2347L48.7033 37.0787V37.0782C48.6914 33.6774 49.8546 32.0836 51.0522 31.4951C52.1047 30.9778 53.2959 31.1414 54.2285 31.7137C55.1725 32.2931 55.8189 33.2823 55.8454 34.2989L56.3327 51.1537L56.3328 51.1582C56.3767 52.9721 55.7221 54.5535 54.4494 55.8408C54.448 55.8423 54.4466 55.8437 54.445 55.8451L47.0873 63.191V64.3988ZM37.7389 64.3194L45.2049 64.3828V62.8007C45.2049 62.5508 45.3043 62.3111 45.4812 62.1347L53.1148 54.5134C54.0132 53.6028 54.4816 52.4874 54.451 51.2054L53.9639 34.3532L53.9638 34.3507C53.9528 33.9302 53.6333 33.557 53.2439 33.3181C52.0761 32.6014 50.5726 33.3285 50.5856 37.0715L50.6232 46.2294V46.2332C50.6232 47.7317 50.1305 49.0123 49.1755 50.1877L49.1729 50.1908L48.5482 50.953C48.5412 50.9616 48.534 50.9701 48.5266 50.9784L48.5259 50.9792C47.3134 52.3557 46.0139 53.5188 44.6626 54.8701C44.2953 55.2374 43.6988 55.2374 43.3315 54.8701C42.9642 54.5028 42.9642 53.9064 43.3315 53.539C44.6447 52.2258 45.9103 51.0967 47.0898 49.7618C47.5619 49.1229 47.5836 48.4571 47.0848 47.9656L47.0799 47.9608C46.577 47.458 45.7946 47.5042 45.2567 47.9574C43.159 50.4175 40.4667 52.4434 38.9819 53.7898C38.9805 53.791 38.9791 53.7922 38.9778 53.7935C37.8598 54.7955 37.729 56.2422 37.729 57.7399L37.7389 64.3194ZM34.9613 66.1783H34.9575C34.8362 66.1815 34.7303 66.2771 34.7303 66.399V66.4083C34.7303 66.4083 34.7054 68.9508 34.7055 68.9541C34.7086 69.0754 34.802 69.1811 34.9262 69.1811L34.9342 69.1812L48.1781 69.2936L48.1886 69.2938C48.3047 69.2961 48.4035 69.2014 48.4035 69.0854V69.0761C48.4035 69.0761 48.4285 66.5336 48.4283 66.5299C48.4273 66.4674 48.4022 66.4077 48.3583 66.3632C48.3145 66.3186 48.2552 66.2926 48.1927 66.2905L34.9613 66.1783ZM37.1752 67.3861C37.3626 67.8734 37.1252 68.4356 36.6379 68.6355C36.1381 68.8229 35.5759 68.5856 35.3885 68.0983C35.1886 67.5985 35.426 67.0488 35.9258 66.8488C36.413 66.6489 36.9753 66.8863 37.1752 67.3861ZM12.907 64.3988V63.1905L5.56116 55.8447C4.27257 54.5561 3.6301 52.9739 3.67398 51.1582L3.6741 51.1544L4.14892 34.2996L4.14904 34.2967C4.1808 33.2791 4.82998 32.2916 5.77504 31.7131C6.70939 31.1412 7.90104 30.9782 8.95363 31.495C10.1521 32.0835 11.3154 33.6772 11.3035 37.0782V37.0787L11.266 46.237V46.2424C11.2636 46.4816 11.281 46.7127 11.3172 46.9365C11.4042 46.8294 11.4971 46.7272 11.5954 46.6303C12.8128 45.3998 14.7675 45.4342 16.0537 46.597C16.0854 46.6257 16.115 46.6564 16.1426 46.6891C18.1726 49.1005 20.8225 51.0763 22.2854 52.3917C23.8162 53.7637 24.1602 55.6896 24.1602 57.7404V57.7418L24.1503 64.3035L25.0352 64.296L25.0432 64.2958C26.1887 64.2958 27.1362 65.2351 27.1586 66.3805L27.1588 66.3898L27.1838 68.9387V68.9478C27.1838 70.0968 26.234 71.0608 25.0856 71.0635L11.8493 71.1758C10.6788 71.1955 9.73128 70.2524 9.70869 69.1037L9.70857 69.09L9.6961 66.5497C9.67622 65.379 10.6194 64.431 11.7682 64.4085L11.7787 64.4084L12.907 64.3988ZM22.2679 64.3194L22.2779 57.7399C22.2777 56.2422 22.1472 54.7955 21.029 53.7935L21.0279 53.7924C19.5295 52.4451 16.836 50.4181 14.7489 47.9563C14.2125 47.505 13.4259 47.4547 12.9317 47.9559L12.922 47.9656C12.4232 48.4571 12.445 49.1229 12.9172 49.7618C14.0974 51.0978 15.364 52.228 16.6659 53.5422C16.8414 53.7196 16.9394 53.9594 16.9382 54.209C16.9371 54.4586 16.8369 54.6975 16.6596 54.8732C16.4822 55.0488 16.2424 55.1467 15.9928 55.1455C15.7433 55.1444 15.5044 55.0441 15.3287 54.8669C13.9909 53.5167 12.6923 52.3545 11.4808 50.979L11.4802 50.9784L11.4645 50.9599L10.8273 50.1978C10.8229 50.1926 10.8186 50.1874 10.8143 50.1821C9.87422 49.007 9.36975 47.7255 9.38363 46.2275L9.42116 37.0715C9.43422 33.3282 7.9288 32.6019 6.75775 33.3187C6.36586 33.5584 6.04398 33.9329 6.03045 34.3548L5.55586 51.2051C5.52516 52.4874 5.9821 53.6035 6.89222 54.5136L14.5137 62.1351C14.6902 62.3117 14.7894 62.551 14.7894 62.8007V64.3828L22.2679 64.3194ZM25.0454 66.1783L11.7989 66.2907C11.6776 66.2963 11.5759 66.3941 11.5782 66.5184L11.5783 66.5318L11.5909 69.0734C11.5966 69.1945 11.6943 69.2962 11.8186 69.2938L11.8287 69.2936L25.0727 69.1812L25.0807 69.1811C25.2036 69.1811 25.3 69.0735 25.3014 68.9508L25.2765 66.4111C25.2708 66.2857 25.1712 66.1795 25.0454 66.1783ZM24.6183 67.3861C24.8182 67.8734 24.5683 68.4356 24.0812 68.6355C23.5813 68.8229 23.0316 68.5856 22.8316 68.0983C22.6317 67.5985 22.8816 67.0488 23.3689 66.8488C23.8687 66.6489 24.4185 66.8863 24.6183 67.3861ZM34.4519 33.9617H19.9463C19.8143 33.9617 19.6837 33.9339 19.5631 33.8801C19.4424 33.8263 19.3345 33.7478 19.2462 33.6495C19.158 33.5513 19.0914 33.4355 19.0508 33.3099C19.0102 33.1842 18.9965 33.0514 19.0106 32.9201C19.4714 28.6288 22.3854 25.0716 26.3217 23.681C24.881 22.5722 23.9501 20.8308 23.9501 18.8792C23.9501 15.5444 26.6686 12.8232 30.0034 12.8232C33.3413 12.8232 36.0594 15.5447 36.0594 18.8792C36.0594 20.8308 35.1285 22.5723 33.6872 23.6812C34.9091 24.1133 36.0453 24.7572 37.0439 25.5834L38.1728 22.6135C38.5783 21.5388 40.1075 21.5388 40.513 22.6135L41.8587 26.1534L45.6386 26.3392C46.7972 26.3912 47.2616 27.8507 46.3666 28.5641L43.4125 30.9396L44.4049 34.5904C44.7129 35.6959 43.4813 36.5974 42.5183 35.9728L42.515 35.9707L39.343 33.8948L36.1743 35.9704L36.1708 35.9728C35.2113 36.5951 33.9813 35.6978 34.2795 34.5956L34.2797 34.5945L34.4519 33.9617ZM30.0034 24.9352C25.6353 24.9352 21.98 27.9895 21.0552 32.0794H34.9636L35.2735 30.9396L32.3225 28.5667C31.4242 27.8507 31.8887 26.3912 33.0434 26.3394L34.7482 26.2556C33.364 25.4176 31.7401 24.9352 30.0034 24.9352ZM30.0034 23.0529C32.3037 23.0529 34.177 21.1774 34.177 18.8792C34.177 16.5811 32.3037 14.7056 30.0034 14.7056C27.7054 14.7056 25.8325 16.5812 25.8325 18.8792C25.8325 21.1772 27.7054 23.0529 30.0034 23.0529ZM34.7933 28.1379L36.7688 29.7267C37.1683 30.041 37.3306 30.5322 37.2006 31.0259C37.2 31.0284 37.1993 31.0309 37.1986 31.0334L36.5319 33.4861C37.5128 32.8434 38.6535 32.0962 38.6525 32.097C39.0819 31.8119 39.6016 31.8115 40.0314 32.0956L42.1536 33.4845L41.4873 31.0334L41.4853 31.0259C41.3553 30.5318 41.5179 30.0404 41.9168 29.7269L43.8927 28.1379L41.3533 28.0131H41.3513C40.8438 27.987 40.4274 27.6878 40.2458 27.2077L39.3429 24.8328L38.4407 27.2064C38.2586 27.6878 37.8421 27.987 37.3347 28.0131H37.3327L34.7933 28.1379ZM43.8367 37.9063V40.5223C43.8367 40.7125 43.779 40.8982 43.6714 41.055C43.5637 41.2118 43.4111 41.3323 43.2336 41.4007L41.5486 42.0491C41.2938 42.9462 40.9353 43.8105 40.4805 44.6247L41.2128 46.2781C41.2898 46.4518 41.3123 46.6448 41.2775 46.8317C41.2427 47.0185 41.1521 47.1904 41.0178 47.3248L38.5518 49.7908C38.4174 49.9252 38.2454 50.0157 38.0586 50.0505C37.8718 50.0853 37.6788 50.0627 37.505 49.9857L35.8534 49.2541C35.0393 49.71 34.1742 50.0684 33.2761 50.3217L32.6276 52.0065C32.5593 52.1841 32.4388 52.3367 32.282 52.4444C32.1252 52.5521 31.9395 52.6097 31.7493 52.6097H28.261C28.0708 52.6097 27.8851 52.5521 27.7283 52.4444C27.5715 52.3367 27.451 52.1841 27.3827 52.0065L26.7343 50.322C25.8359 50.0675 24.9703 49.7089 24.1552 49.2534L22.5017 49.9857C22.328 50.0627 22.135 50.0853 21.9482 50.0505C21.7613 50.0157 21.5894 49.9252 21.455 49.7908L18.989 47.3248C18.8545 47.1902 18.7639 47.0181 18.7292 46.831C18.6945 46.6439 18.7173 46.4507 18.7946 46.2769L19.5288 44.6256C19.0732 43.8115 18.7143 42.947 18.4594 42.0496L16.7732 41.4007C16.5957 41.3323 16.443 41.2118 16.3354 41.055C16.2277 40.8982 16.1701 40.7125 16.1701 40.5223V37.9063C16.1701 37.6567 16.2693 37.4173 16.4458 37.2408C16.6223 37.0643 16.8617 36.9651 17.1113 36.9651H42.8955C43.1451 36.9651 43.3845 37.0643 43.561 37.2408C43.7375 37.4173 43.8367 37.6567 43.8367 37.9063ZM22.9766 38.8475H18.0525V39.8761L19.5852 40.466C19.7274 40.5207 19.8543 40.6092 19.9548 40.7238C20.0553 40.8384 20.1264 40.9757 20.1621 41.1239C20.4127 42.165 20.8236 43.1612 21.386 44.0705C21.4666 44.2009 21.5141 44.349 21.5245 44.5019C21.5349 44.6548 21.5078 44.8079 21.4455 44.9479L20.7773 46.4509L22.3296 48.0032L23.833 47.3374C23.9723 47.2756 24.1246 47.2487 24.2766 47.2588C24.4286 47.2689 24.576 47.3157 24.7059 47.3954C25.6186 47.9545 26.6115 48.3695 27.656 48.6169C27.8049 48.6522 27.9429 48.7232 28.0582 48.8239C28.1734 48.9246 28.2624 49.0518 28.3174 49.1947L28.9073 50.7274H31.103L31.6929 49.1947C31.7478 49.0519 31.8367 48.9248 31.9518 48.8241C32.0669 48.7235 32.2049 48.6524 32.3536 48.617C33.3939 48.3706 34.3878 47.9588 35.2975 47.3974C35.4277 47.3169 35.5755 47.2693 35.7282 47.2589C35.8809 47.2484 36.0338 47.2754 36.1737 47.3374L37.6772 48.0032L39.2302 46.4502L38.5643 44.9468C38.5026 44.8074 38.4756 44.6552 38.4857 44.5032C38.4958 44.3511 38.5427 44.2038 38.6223 44.0738C39.1815 43.161 39.5966 42.1681 39.8441 41.1267C39.8795 40.9779 39.9505 40.84 40.0512 40.7249C40.1518 40.6098 40.2789 40.5209 40.4216 40.466L41.9543 39.8761V38.8475H37.0302C36.9921 42.6963 33.8594 45.8054 30.0016 45.8054C26.1436 45.8054 23.0147 42.6964 22.9766 38.8475ZM35.1477 38.8475H24.859C24.897 41.6567 27.1835 43.923 30.0016 43.923C32.82 43.923 35.1097 41.6568 35.1477 38.8475Z" fill="#A8A8BD"></path></svg>